<?xml version="1.0" encoding="UTF-8" standalone="no"?>
<svg
   xmlns:dc="http://purl.org/dc/elements/1.1/"
   xmlns:cc="http://creativecommons.org/ns#"
   xmlns:rdf="http://www.w3.org/1999/02/22-rdf-syntax-ns#"
   xmlns:svg="http://www.w3.org/2000/svg"
   xmlns="http://www.w3.org/2000/svg"
   xmlns:sodipodi="http://sodipodi.sourceforge.net/DTD/sodipodi-0.dtd"
   xmlns:inkscape="http://www.inkscape.org/namespaces/inkscape"
   inkscape:export-ydpi="768"
   inkscape:export-xdpi="768"
   inkscape:export-filename="C:\Users\RainBoyz\Desktop\Final\2. Gun.png"
   width="48pt"
   height="48pt"
   viewBox="0 0 16.933334 16.933333"
   version="1.1"
   id="svg979"
   inkscape:version="1.0 (4035a4fb49, 2020-05-01)"
   sodipodi:docname="3. Detective.svg">
  <defs
     id="defs973" />
  <sodipodi:namedview
     id="base"
     pagecolor="#ffffff"
     bordercolor="#666666"
     borderopacity="1.0"
     inkscape:pageopacity="0.0"
     inkscape:pageshadow="2"
     inkscape:zoom="6.0435533"
     inkscape:cx="-3.5368154"
     inkscape:cy="21.311583"
     inkscape:document-units="pt"
     inkscape:current-layer="layer1"
     showgrid="false"
     units="pt"
     inkscape:window-width="1366"
     inkscape:window-height="715"
     inkscape:window-x="-8"
     inkscape:window-y="-8"
     inkscape:window-maximized="1"
     inkscape:document-rotation="0"
     inkscape:snap-bbox="true"
     inkscape:bbox-nodes="true"
     inkscape:snap-nodes="false">
    <inkscape:grid
       type="xygrid"
       id="grid1526" />
    <sodipodi:guide
       position="0.97013909,15.963209"
       orientation="56.666615,0"
       id="guide1528"
       inkscape:locked="false" />
    <sodipodi:guide
       position="0.97013909,0.97016731"
       orientation="0,56.666667"
       id="guide1530"
       inkscape:locked="false" />
    <sodipodi:guide
       position="15.963195,0.97016731"
       orientation="-56.666615,0"
       id="guide1532"
       inkscape:locked="false" />
    <sodipodi:guide
       position="15.963195,15.963209"
       orientation="0,-56.666667"
       id="guide1534"
       inkscape:locked="false" />
  </sodipodi:namedview>
  <metadata
     id="metadata976">
    <rdf:RDF>
      <cc:Work
         rdf:about="">
        <dc:format>image/svg+xml</dc:format>
        <dc:type
           rdf:resource="http://purl.org/dc/dcmitype/StillImage" />
        <dc:title></dc:title>
      </cc:Work>
    </rdf:RDF>
  </metadata>
  <g
     inkscape:label="Layer 1"
     inkscape:groupmode="layer"
     id="layer1"
     transform="translate(0,-280.06668)">
    <g
       transform="matrix(1.2056202,0,0,1.2056202,0.81160552,-35.235695)"
       id="g516">
      <g
         id="g1225">
        <path
           style="color:#000000;font-style:normal;font-variant:normal;font-weight:normal;font-stretch:normal;font-size:medium;line-height:normal;font-family:sans-serif;font-variant-ligatures:normal;font-variant-position:normal;font-variant-caps:normal;font-variant-numeric:normal;font-variant-alternates:normal;font-variant-east-asian:normal;font-feature-settings:normal;font-variation-settings:normal;text-indent:0;text-align:start;text-decoration:none;text-decoration-line:none;text-decoration-style:solid;text-decoration-color:#000000;letter-spacing:normal;word-spacing:normal;text-transform:none;writing-mode:lr-tb;direction:ltr;text-orientation:mixed;dominant-baseline:auto;baseline-shift:baseline;text-anchor:start;white-space:normal;shape-padding:0;shape-margin:0;inline-size:0;clip-rule:nonzero;display:inline;overflow:visible;visibility:visible;isolation:auto;mix-blend-mode:normal;color-interpolation:sRGB;color-interpolation-filters:linearRGB;solid-color:#000000;solid-opacity:1;vector-effect:none;fill:#677582;fill-opacity:1;fill-rule:nonzero;stroke:none;stroke-width:0.529167;stroke-linecap:round;stroke-linejoin:round;stroke-miterlimit:4;stroke-dasharray:none;stroke-dashoffset:0;stroke-opacity:1;color-rendering:auto;image-rendering:auto;shape-rendering:auto;text-rendering:auto;enable-background:accumulate;stop-color:#000000"
           d="m 4.9472656,269.7832 c -0.077242,-2.3e-4 -0.1507273,0.0333 -0.2011718,0.0918 l -1.1699219,1.36719 c -1.0257973,-0.0975 -1.5822627,0.0967 -2.149245,0.63867 -0.59922392,0.57279 -0.87500003,1.4636 -0.87500004,2.58594 5.1562e-4,0.14541 0.11826433,0.26316 0.26367187,0.26367 H 12.144531 c 0.145408,-5.1e-4 0.263156,-0.11826 0.263672,-0.26367 0,-1.12234 -1.093672,-2.10568 -1.692896,-2.67847 -0.568985,-0.54389 -0.598546,-0.64626 -1.6293695,-0.54614 l -1.3730469,-1.36914 c -0.049144,-0.0495 -0.1158237,-0.0775 -0.1855468,-0.0781 z"
           id="path419"
           sodipodi:nodetypes="cccsccccccccc" />
        <path
           sodipodi:nodetypes="cscccccccccccc"
           d="m 6.3359374,274.73047 c 0.089343,-0.34542 1.0747206,-1.61127 1.2225544,-2.07989 0.2956679,-0.93724 0.6227011,-1.89084 0.6227011,-1.89084 0.010832,-0.0314 0.027486,-0.0605 0.049093,-0.0858 l 0.190686,-0.22066 0.6748941,0.7891 c 0.6391015,-0.0607 0.6185501,-0.008 1.0937,0.17105 l 0.189767,0.13126 0.03001,0.077 c 0.411534,0.31469 0.642108,1.01048 0.195992,1.27282 h -0.0021 c -0.201028,3.2e-4 5.37e-4,0.002 0,0.002 l -3.0897342,1.83399 z"
           style="color:#000000;font-style:normal;font-variant:normal;font-weight:normal;font-stretch:normal;font-size:medium;line-height:normal;font-family:sans-serif;font-variant-ligatures:normal;font-variant-position:normal;font-variant-caps:normal;font-variant-numeric:normal;font-variant-alternates:normal;font-variant-east-asian:normal;font-feature-settings:normal;font-variation-settings:normal;text-indent:0;text-align:start;text-decoration:none;text-decoration-line:none;text-decoration-style:solid;text-decoration-color:#000000;letter-spacing:normal;word-spacing:normal;text-transform:none;writing-mode:lr-tb;direction:ltr;text-orientation:mixed;dominant-baseline:auto;baseline-shift:baseline;text-anchor:start;white-space:normal;shape-padding:0;shape-margin:0;inline-size:0;clip-rule:nonzero;display:inline;overflow:visible;visibility:visible;isolation:auto;mix-blend-mode:normal;color-interpolation:sRGB;color-interpolation-filters:linearRGB;solid-color:#000000;solid-opacity:1;vector-effect:none;fill:#56626b;fill-opacity:1;fill-rule:nonzero;stroke:none;stroke-width:0.529167;stroke-linecap:round;stroke-linejoin:round;stroke-miterlimit:4;stroke-dasharray:none;stroke-dashoffset:0;stroke-opacity:1;color-rendering:auto;image-rendering:auto;shape-rendering:auto;text-rendering:auto;enable-background:accumulate;stop-color:#000000"
           id="path1320" />
        <path
           id="path1315"
           style="color:#000000;font-style:normal;font-variant:normal;font-weight:normal;font-stretch:normal;font-size:medium;line-height:normal;font-family:sans-serif;font-variant-ligatures:normal;font-variant-position:normal;font-variant-caps:normal;font-variant-numeric:normal;font-variant-alternates:normal;font-variant-east-asian:normal;font-feature-settings:normal;font-variation-settings:normal;text-indent:0;text-align:start;text-decoration:none;text-decoration-line:none;text-decoration-style:solid;text-decoration-color:#000000;letter-spacing:normal;word-spacing:normal;text-transform:none;writing-mode:lr-tb;direction:ltr;text-orientation:mixed;dominant-baseline:auto;baseline-shift:baseline;text-anchor:start;white-space:normal;shape-padding:0;shape-margin:0;inline-size:0;clip-rule:nonzero;display:inline;overflow:visible;visibility:visible;isolation:auto;mix-blend-mode:normal;color-interpolation:sRGB;color-interpolation-filters:linearRGB;solid-color:#000000;solid-opacity:1;vector-effect:none;fill:#56626b;fill-opacity:1;fill-rule:nonzero;stroke:none;stroke-width:2;stroke-linecap:round;stroke-linejoin:round;stroke-miterlimit:4;stroke-dasharray:none;stroke-dashoffset:0;stroke-opacity:1;color-rendering:auto;image-rendering:auto;shape-rendering:auto;text-rendering:auto;enable-background:accumulate;stop-color:#000000"
           d="m 23.94685,-36.168303 c -0.337674,-1.305525 -4.061936,-6.089832 -4.620678,-7.860994 -1.117485,-3.542324 -2.353516,-7.146484 -2.353516,-7.146484 -0.04094,-0.118767 -0.103884,-0.228759 -0.185547,-0.324219 l -0.720703,-0.833984 -2.550781,2.982422 c -2.415502,-0.229589 -4.5635339,-0.03107 -6.359375,0.646484 l 0.9726562,0.496094 -0.5976562,0.451172 c -1.5554052,1.189379 -1.406801,3.658869 0.2792969,4.65039 h 0.00781 c 0.00203,0.0012 -0.00203,0.0078 0,0.0078 l 11.6777341,6.93164 z"
           transform="matrix(0.26458333,0,0,0.26458333,0,284.3)"
           sodipodi:nodetypes="cscccccccccccc" />
        <path
           style="color:#000000;font-style:normal;font-variant:normal;font-weight:normal;font-stretch:normal;font-size:medium;line-height:normal;font-family:sans-serif;font-variant-ligatures:normal;font-variant-position:normal;font-variant-caps:normal;font-variant-numeric:normal;font-variant-alternates:normal;font-variant-east-asian:normal;font-feature-settings:normal;font-variation-settings:normal;text-indent:0;text-align:start;text-decoration:none;text-decoration-line:none;text-decoration-style:solid;text-decoration-color:#000000;letter-spacing:normal;word-spacing:normal;text-transform:none;writing-mode:lr-tb;direction:ltr;text-orientation:mixed;dominant-baseline:auto;baseline-shift:baseline;text-anchor:start;white-space:normal;shape-padding:0;shape-margin:0;inline-size:0;clip-rule:nonzero;display:inline;overflow:visible;visibility:visible;isolation:auto;mix-blend-mode:normal;color-interpolation:sRGB;color-interpolation-filters:linearRGB;solid-color:#000000;solid-opacity:1;vector-effect:none;fill:#7d8e9e;fill-opacity:1;fill-rule:nonzero;stroke:none;stroke-width:0.529167;stroke-linecap:round;stroke-linejoin:round;stroke-miterlimit:4;stroke-dasharray:none;stroke-dashoffset:0;stroke-opacity:1;color-rendering:auto;image-rendering:auto;shape-rendering:auto;text-rendering:auto;enable-background:accumulate;stop-color:#000000"
           d="m 4.2421875,269.66278 c -0.045412,-0.002 -0.090479,0.008 -0.1308594,0.0293 l -0.9851149,0.3919 c -0.4814318,0.24544 -0.8849888,0.96746 -0.403557,1.2129 l 0.4863282,0.24804 -0.1582032,0.11914 c -0.4115343,0.31469 -0.3718944,0.96813 0.074219,1.23047 h 0.00195 c 5.364e-4,3.2e-4 -5.375e-4,0.002 0,0.002 l 3.0898438,1.77616 c 0.050219,0.0298 0.1781448,0.0672 0.2871093,0.004 0.1089646,-0.0633 0.1252346,-0.14693 0.1347657,-0.19141 0.019062,-0.089 0.00934,-0.0726 0.00195,-0.12967 -0.01478,-0.11406 -0.047125,-0.25308 -0.091797,-0.42578 -0.089343,-0.34542 -0.2291192,-0.81068 -0.3769531,-1.2793 C 5.876201,271.71329 5.548822,270.75991 5.548822,270.75991 5.5381061,270.7284 5.5215424,270.6992 5.5,270.67383 l -1.0683594,-0.91925 c -0.047737,-0.0555 -0.1163235,-0.0887 -0.1894531,-0.0918 z"
           id="path357"
           sodipodi:nodetypes="ccccccccccccscscccc" />
        <path
           style="color:#000000;font-style:normal;font-variant:normal;font-weight:normal;font-stretch:normal;font-size:medium;line-height:normal;font-family:sans-serif;font-variant-ligatures:normal;font-variant-position:normal;font-variant-caps:normal;font-variant-numeric:normal;font-variant-alternates:normal;font-variant-east-asian:normal;font-feature-settings:normal;font-variation-settings:normal;text-indent:0;text-align:start;text-decoration:none;text-decoration-line:none;text-decoration-style:solid;text-decoration-color:#000000;letter-spacing:normal;word-spacing:normal;text-transform:none;writing-mode:lr-tb;direction:ltr;text-orientation:mixed;dominant-baseline:auto;baseline-shift:baseline;text-anchor:start;white-space:normal;shape-padding:0;shape-margin:0;inline-size:0;clip-rule:nonzero;display:inline;overflow:visible;visibility:visible;isolation:auto;mix-blend-mode:normal;color-interpolation:sRGB;color-interpolation-filters:linearRGB;solid-color:#000000;solid-opacity:1;vector-effect:none;fill:#7d8e9e;fill-opacity:1;fill-rule:nonzero;stroke:none;stroke-width:0.529167;stroke-linecap:round;stroke-linejoin:round;stroke-miterlimit:4;stroke-dasharray:none;stroke-dashoffset:0;stroke-opacity:1;color-rendering:auto;image-rendering:auto;shape-rendering:auto;text-rendering:auto;enable-background:accumulate;stop-color:#000000"
           d="m 8.5292969,269.53109 c -0.075191,10e-4 -0.1462118,0.0348 -0.1953125,0.0918 l -1.0664063,1.05094 c -0.022222,0.0251 -0.039455,0.0543 -0.050781,0.0859 0,0 -0.3254259,0.95338 -0.6210938,1.89062 -0.1478339,0.46862 -0.2895635,0.93388 -0.3789062,1.2793 -0.044671,0.1727 -0.077017,0.31172 -0.091797,0.42578 -0.00739,0.057 -0.017109,0.002 0.00195,0.0911 0.00953,0.0445 0.027754,0.12811 0.1367188,0.19141 0.1089645,0.0633 0.2368903,0.0259 0.2871093,-0.004 l 3.0878907,-1.7376 0.00195,-0.002 c 0.4461131,-0.26234 0.4857531,-0.91578 0.074219,-1.23047 l -0.15625,-0.12109 0.4843751,-0.24609 c 0.481431,-0.24544 0.481432,-0.8475 0,-1.09294 l -1.3886661,-0.64337 c -0.03863,-0.0199 -0.08156,-0.0299 -0.125,-0.0293 z"
           id="path371"
           sodipodi:nodetypes="ccccsscssccccccccc" />
        <path
           sodipodi:nodetypes="cccccccccc"
           id="path1303"
           style="color:#000000;font-style:normal;font-variant:normal;font-weight:normal;font-stretch:normal;font-size:medium;line-height:normal;font-family:sans-serif;font-variant-ligatures:normal;font-variant-position:normal;font-variant-caps:normal;font-variant-numeric:normal;font-variant-alternates:normal;font-variant-east-asian:normal;font-feature-settings:normal;font-variation-settings:normal;text-indent:0;text-align:start;text-decoration:none;text-decoration-line:none;text-decoration-style:solid;text-decoration-color:#000000;letter-spacing:normal;word-spacing:normal;text-transform:none;writing-mode:lr-tb;direction:ltr;text-orientation:mixed;dominant-baseline:auto;baseline-shift:baseline;text-anchor:start;white-space:normal;shape-padding:0;shape-margin:0;inline-size:0;clip-rule:nonzero;display:inline;overflow:visible;visibility:visible;isolation:auto;mix-blend-mode:normal;color-interpolation:sRGB;color-interpolation-filters:linearRGB;solid-color:#000000;solid-opacity:1;vector-effect:none;fill:#6a7986;fill-opacity:1;fill-rule:nonzero;stroke:none;stroke-width:2;stroke-linecap:round;stroke-linejoin:round;stroke-miterlimit:4;stroke-dasharray:none;stroke-dashoffset:0;stroke-opacity:1;color-rendering:auto;image-rendering:auto;shape-rendering:auto;text-rendering:auto;enable-background:accumulate;stop-color:#000000"
           d="m 15.949219,-55.756904 c -0.14297,0.0067 -0.188347,0.937183 -0.410157,0.109375 l -2.27408,1.40756 c 0.597583,1.671203 1.244523,2.407279 2.229159,3.919657 1.951345,2.997256 4.599885,5.48487 7.693359,5.863281 -1.076282,-3.386272 -2.214844,-6.71875 -2.214844,-6.71875 C 20.931719,-51.294548 20.868772,-51.40454 20.787109,-51.5 L 16.75,-55.411201 c -0.180824,-0.209428 -0.44033,-0.334585 -0.716797,-0.345703 -0.02798,-0.0012 -0.056,-0.0012 -0.08398,0 z"
           transform="matrix(0.26458333,0,0,0.26458333,0,284.3)" />
        <path
           style="color:#000000;font-style:normal;font-variant:normal;font-weight:normal;font-stretch:normal;font-size:medium;line-height:normal;font-family:sans-serif;font-variant-ligatures:normal;font-variant-position:normal;font-variant-caps:normal;font-variant-numeric:normal;font-variant-alternates:normal;font-variant-east-asian:normal;font-feature-settings:normal;font-variation-settings:normal;text-indent:0;text-align:start;text-decoration:none;text-decoration-line:none;text-decoration-style:solid;text-decoration-color:#000000;letter-spacing:normal;word-spacing:normal;text-transform:none;writing-mode:lr-tb;direction:ltr;text-orientation:mixed;dominant-baseline:auto;baseline-shift:baseline;text-anchor:start;white-space:normal;shape-padding:0;shape-margin:0;inline-size:0;clip-rule:nonzero;display:inline;overflow:visible;visibility:visible;isolation:auto;mix-blend-mode:normal;color-interpolation:sRGB;color-interpolation-filters:linearRGB;solid-color:#000000;solid-opacity:1;vector-effect:none;fill:#f8c09d;fill-opacity:1;fill-rule:nonzero;stroke:none;stroke-width:0.529167;stroke-linecap:round;stroke-linejoin:round;stroke-miterlimit:4;stroke-dasharray:none;stroke-dashoffset:0;stroke-opacity:1;color-rendering:auto;image-rendering:auto;shape-rendering:auto;text-rendering:auto;enable-background:accumulate;stop-color:#000000"
           d="m 3.615094,266.89844 c -0.1461697,-5.6e-4 -0.2651068,0.1175 -0.265625,0.26367 1.4e-6,0.85953 0.1891686,1.90398 0.7501404,2.76562 0.5609717,0.86165 1.3389646,1.56641 2.25,1.56641 0.9110353,0 1.6890282,-0.70476 2.25,-1.56641 0.5609717,-0.86164 -0.4105233,-1.50259 -0.4105219,-2.36212 -5.156e-4,-0.14541 1.2121794,-0.66666 1.0667719,-0.66717 z"
           id="path299"
           sodipodi:nodetypes="cccscccc" />
        <path
           d="m 8.5465895,269.34587 c 0.037825,0.002 0.074832,0.0116 0.1085207,0.0289 l 0.2112823,0.32918 c -0.1581105,0.44217 0.061121,0.88194 -0.199397,1.28209 -0.5162933,0.79303 -1.2170528,1.45121 -2.0355345,1.55133 0.2847663,-0.89595 0.5860108,-1.77767 0.5860108,-1.77767 0.010829,-0.0314 0.027484,-0.0605 0.049093,-0.0858 l 1.0681518,-1.23662 c 0.047837,-0.0554 0.116499,-0.0885 0.1896525,-0.0915 0.0074,-3.1e-4 0.014817,-3.1e-4 0.022221,0 z"
           style="color:#000000;font-style:normal;font-variant:normal;font-weight:normal;font-stretch:normal;font-size:medium;line-height:normal;font-family:sans-serif;font-variant-ligatures:normal;font-variant-position:normal;font-variant-caps:normal;font-variant-numeric:normal;font-variant-alternates:normal;font-variant-east-asian:normal;font-feature-settings:normal;font-variation-settings:normal;text-indent:0;text-align:start;text-decoration:none;text-decoration-line:none;text-decoration-style:solid;text-decoration-color:#000000;letter-spacing:normal;word-spacing:normal;text-transform:none;writing-mode:lr-tb;direction:ltr;text-orientation:mixed;dominant-baseline:auto;baseline-shift:baseline;text-anchor:start;white-space:normal;shape-padding:0;shape-margin:0;inline-size:0;clip-rule:nonzero;display:inline;overflow:visible;visibility:visible;isolation:auto;mix-blend-mode:normal;color-interpolation:sRGB;color-interpolation-filters:linearRGB;solid-color:#000000;solid-opacity:1;vector-effect:none;fill:#6a7986;fill-opacity:1;fill-rule:nonzero;stroke:none;stroke-width:0.529167;stroke-linecap:round;stroke-linejoin:round;stroke-miterlimit:4;stroke-dasharray:none;stroke-dashoffset:0;stroke-opacity:1;color-rendering:auto;image-rendering:auto;shape-rendering:auto;text-rendering:auto;enable-background:accumulate;stop-color:#000000"
           id="path1308"
           sodipodi:nodetypes="ccccccccccc" />
        <path
           id="path436"
           style="color:#000000;font-style:normal;font-variant:normal;font-weight:normal;font-stretch:normal;font-size:medium;line-height:normal;font-family:sans-serif;font-variant-ligatures:normal;font-variant-position:normal;font-variant-caps:normal;font-variant-numeric:normal;font-variant-alternates:normal;font-variant-east-asian:normal;font-feature-settings:normal;font-variation-settings:normal;text-indent:0;text-align:start;text-decoration:none;text-decoration-line:none;text-decoration-style:solid;text-decoration-color:#000000;letter-spacing:normal;word-spacing:normal;text-transform:none;writing-mode:lr-tb;direction:ltr;text-orientation:mixed;dominant-baseline:auto;baseline-shift:baseline;text-anchor:start;white-space:normal;shape-padding:0;shape-margin:0;inline-size:0;clip-rule:nonzero;display:inline;overflow:visible;visibility:visible;isolation:auto;mix-blend-mode:normal;color-interpolation:sRGB;color-interpolation-filters:linearRGB;solid-color:#000000;solid-opacity:1;vector-effect:none;fill:#f5a794;fill-opacity:1;fill-rule:nonzero;stroke:none;stroke-width:2.68661;stroke-linecap:round;stroke-linejoin:round;stroke-miterlimit:4;stroke-dasharray:none;stroke-dashoffset:0;stroke-opacity:1;color-rendering:auto;image-rendering:auto;shape-rendering:auto;text-rendering:auto;enable-background:accumulate;stop-color:#000000"
           d="m 13.013672,-65.769531 c -0.552263,-0.0021 -1.001697,0.44383 -1.003906,0.996093 10e-7,0.904603 0.339864,1.866631 0.538272,2.84961 0.345636,0.09543 0.4838,0.187012 0.864071,0.273437 0.781054,0.177584 1.638897,0.331355 2.556319,0.462148 1.765018,0.25163 2.646536,1.733302 2.622287,3.507993 -5.8e-4,0.04243 -8.71e-4,0.08494 -8.71e-4,0.127516 0,4.202361 2.704711,7.795089 6.445312,9.064453 2.996891,-0.468703 5.562898,-2.907651 7.466797,-5.832031 2.120208,-3.256593 -1.180941,-5.844354 -1.180935,-9.092972 -0.0022,-0.549215 4.210619,-2.354051 3.661404,-2.356247 z"
           transform="matrix(0.26458333,0,0,0.26458333,0,284.3)"
           sodipodi:nodetypes="ccccsssccccc" />
        <path
           style="color:#000000;font-style:normal;font-variant:normal;font-weight:normal;font-stretch:normal;font-size:medium;line-height:normal;font-family:sans-serif;font-variant-ligatures:normal;font-variant-position:normal;font-variant-caps:normal;font-variant-numeric:normal;font-variant-alternates:normal;font-variant-east-asian:normal;font-feature-settings:normal;font-variation-settings:normal;text-indent:0;text-align:start;text-decoration:none;text-decoration-line:none;text-decoration-style:solid;text-decoration-color:#000000;letter-spacing:normal;word-spacing:normal;text-transform:none;writing-mode:lr-tb;direction:ltr;text-orientation:mixed;dominant-baseline:auto;baseline-shift:baseline;text-anchor:start;white-space:normal;shape-padding:0;shape-margin:0;inline-size:0;clip-rule:nonzero;display:inline;overflow:visible;visibility:visible;isolation:auto;mix-blend-mode:normal;color-interpolation:sRGB;color-interpolation-filters:linearRGB;solid-color:#000000;solid-opacity:1;vector-effect:none;fill:#7d8e9e;fill-opacity:1;fill-rule:nonzero;stroke:none;stroke-width:0.529167;stroke-linecap:round;stroke-linejoin:round;stroke-miterlimit:4;stroke-dasharray:none;stroke-dashoffset:0;stroke-opacity:1;color-rendering:auto;image-rendering:auto;shape-rendering:auto;text-rendering:auto;enable-background:accumulate;stop-color:#000000"
           d="m 4.2324219,265.66126 c -0.5582809,0 -0.8182949,0.0895 -1.1893179,0.23438 -0.1855115,0.0724 -0.3420446,0.15617 -0.4667969,0.26562 -0.1247522,0.10945 -0.2304673,0.16805 -0.2304687,0.35632 1.1e-6,0.14451 0.066678,0.27445 0.1523437,0.37109 0.085666,0.0967 0.4011207,0.17267 0.5251791,0.24024 0.2481166,0.13512 0.1326344,0.15397 0.5254669,0.24325 0.7400445,0.16826 1.7211399,0.3544 2.8007813,0.3544 1.112948,0 2.1195054,-0.17738 2.8671875,-0.35526 0.373841,-0.0889 0.4650498,-0.12291 0.7017779,-0.25607 0.2367272,-0.13315 0.4472632,-0.31703 0.4472652,-0.59765 -1e-6,-0.18803 -0.105497,-0.33737 -0.230469,-0.44727 -0.124971,-0.10989 -0.2811912,-0.0945 -0.4667966,-0.16669 -0.3712108,-0.14441 -0.6457773,-0.23242 -1.2037306,-0.23242 -0.049799,1.6e-4 -0.098542,0.0144 -0.140625,0.041 C 6.342384,266.97513 4.375,265.7022 4.375,265.7022 4.332356,265.6752 4.282885,265.661 4.2324219,265.6612 Z"
           id="path284"
           sodipodi:nodetypes="ccsscccsccsccccccc" />
        <path
           style="color:#000000;font-style:normal;font-variant:normal;font-weight:normal;font-stretch:normal;font-size:medium;line-height:normal;font-family:sans-serif;font-variant-ligatures:normal;font-variant-position:normal;font-variant-caps:normal;font-variant-numeric:normal;font-variant-alternates:normal;font-variant-east-asian:normal;font-feature-settings:normal;font-variation-settings:normal;text-indent:0;text-align:start;text-decoration:none;text-decoration-line:none;text-decoration-style:solid;text-decoration-color:#000000;letter-spacing:normal;word-spacing:normal;text-transform:none;writing-mode:lr-tb;direction:ltr;text-orientation:mixed;dominant-baseline:auto;baseline-shift:baseline;text-anchor:start;white-space:normal;shape-padding:0;shape-margin:0;inline-size:0;clip-rule:nonzero;display:inline;overflow:visible;visibility:visible;isolation:auto;mix-blend-mode:normal;color-interpolation:sRGB;color-interpolation-filters:linearRGB;solid-color:#000000;solid-opacity:1;vector-effect:none;fill:#d0e2ee;fill-opacity:1;fill-rule:nonzero;stroke:none;stroke-width:0.529167;stroke-linecap:round;stroke-linejoin:round;stroke-miterlimit:4;stroke-dasharray:none;stroke-dashoffset:0;stroke-opacity:1;color-rendering:auto;image-rendering:auto;shape-rendering:auto;text-rendering:auto;enable-background:accumulate;stop-color:#000000"
           d="m 8.5351562,269.96094 a 0.26460996,0.26460996 0 0 0 -0.1484374,0.0351 l -0.6933594,0.41016 a 0.26460996,0.26460996 0 0 0 -0.09375,0.36328 l 0.7636718,1.27344 a 0.26460996,0.26460996 0 0 0 0.3613282,0.0898 l 0.6914062,-0.41211 a 0.26460996,0.26460996 0 0 0 0.091797,-0.36328 L 8.748047,270.08975 a 0.26460996,0.26460996 0 0 0 -0.2128907,-0.1289 z"
           id="path341" />
        <path
           sodipodi:nodetypes="sssccss"
           style="color:#000000;font-style:normal;font-variant:normal;font-weight:normal;font-stretch:normal;font-size:medium;line-height:normal;font-family:sans-serif;font-variant-ligatures:normal;font-variant-position:normal;font-variant-caps:normal;font-variant-numeric:normal;font-variant-alternates:normal;font-variant-east-asian:normal;font-feature-settings:normal;font-variation-settings:normal;text-indent:0;text-align:start;text-decoration:none;text-decoration-line:none;text-decoration-style:solid;text-decoration-color:#000000;letter-spacing:normal;word-spacing:normal;text-transform:none;writing-mode:lr-tb;direction:ltr;text-orientation:mixed;dominant-baseline:auto;baseline-shift:baseline;text-anchor:start;white-space:normal;shape-padding:0;shape-margin:0;inline-size:0;clip-rule:nonzero;display:inline;overflow:visible;visibility:visible;isolation:auto;mix-blend-mode:normal;color-interpolation:sRGB;color-interpolation-filters:linearRGB;solid-color:#000000;solid-opacity:1;vector-effect:none;fill:#f5f6e8;fill-opacity:1;fill-rule:nonzero;stroke:none;stroke-width:0.529167;stroke-linecap:round;stroke-linejoin:round;stroke-miterlimit:4;stroke-dasharray:none;stroke-dashoffset:0;stroke-opacity:1;color-rendering:auto;image-rendering:auto;shape-rendering:auto;text-rendering:auto;enable-background:accumulate;stop-color:#000000"
           d="m 7.4082031,267.1875 c -1.0225484,0 -1.8535156,0.85058 -1.8535156,1.88477 0,1.03419 0.8309672,1.88281 1.8535156,1.88281 0.2865566,0 0.5580431,-0.0667 0.8007813,-0.18555 0.3822145,-0.18703 0.4446603,-0.50231 0.626077,-0.89062 0.1144251,-0.24494 0.208513,-0.51874 0.208513,-0.80664 0,-1.03419 -0.6128226,-1.88477 -1.6353713,-1.88477 z"
           id="path326" />
        <path
           sodipodi:nodetypes="ccsccccccsc"
           style="color:#000000;font-style:normal;font-variant:normal;font-weight:normal;font-stretch:normal;font-size:medium;line-height:normal;font-family:sans-serif;font-variant-ligatures:normal;font-variant-position:normal;font-variant-caps:normal;font-variant-numeric:normal;font-variant-alternates:normal;font-variant-east-asian:normal;font-feature-settings:normal;font-variation-settings:normal;text-indent:0;text-align:start;text-decoration:none;text-decoration-line:none;text-decoration-style:solid;text-decoration-color:#000000;letter-spacing:normal;word-spacing:normal;text-transform:none;writing-mode:lr-tb;direction:ltr;text-orientation:mixed;dominant-baseline:auto;baseline-shift:baseline;text-anchor:start;white-space:normal;shape-padding:0;shape-margin:0;inline-size:0;clip-rule:nonzero;display:inline;overflow:visible;visibility:visible;isolation:auto;mix-blend-mode:normal;color-interpolation:sRGB;color-interpolation-filters:linearRGB;solid-color:#000000;solid-opacity:1;vector-effect:none;fill:#ef937e;fill-opacity:1;fill-rule:nonzero;stroke:none;stroke-width:0.529167;stroke-linecap:round;stroke-linejoin:round;stroke-miterlimit:4;stroke-dasharray:none;stroke-dashoffset:0;stroke-opacity:1;color-rendering:auto;image-rendering:auto;shape-rendering:auto;text-rendering:auto;enable-background:accumulate;stop-color:#000000"
           d="m 9.3730469,271.13672 -1.2734375,0.75 c -0.174767,0.10286 -0.2130223,0.24615 -0.2363282,0.39648 -0.023306,0.15034 -0.00707,0.32599 0.085938,0.49024 l 0.023437,0.041 c 0.1859923,0.32854 0.6137112,0.44566 0.9394532,0.25391 l 1.1738286,-0.69141 c 0.325753,-0.19175 0.118931,-0.61486 -0.06708,-0.94336 l -0.02344,-0.041 c -0.186006,-0.32851 -0.2966339,-0.44761 -0.6223726,-0.25586 z"
           id="path397" />
        <path
           style="color:#000000;font-style:normal;font-variant:normal;font-weight:normal;font-stretch:normal;font-size:medium;line-height:normal;font-family:sans-serif;font-variant-ligatures:normal;font-variant-position:normal;font-variant-caps:normal;font-variant-numeric:normal;font-variant-alternates:normal;font-variant-east-asian:normal;font-feature-settings:normal;font-variation-settings:normal;text-indent:0;text-align:start;text-decoration:none;text-decoration-line:none;text-decoration-style:solid;text-decoration-color:#000000;letter-spacing:normal;word-spacing:normal;text-transform:none;writing-mode:lr-tb;direction:ltr;text-orientation:mixed;dominant-baseline:auto;baseline-shift:baseline;text-anchor:start;white-space:normal;shape-padding:0;shape-margin:0;inline-size:0;clip-rule:nonzero;display:inline;overflow:visible;visibility:visible;isolation:auto;mix-blend-mode:normal;color-interpolation:sRGB;color-interpolation-filters:linearRGB;solid-color:#000000;solid-opacity:1;vector-effect:none;fill:#f8c09d;fill-opacity:1;fill-rule:nonzero;stroke:none;stroke-width:0.529167;stroke-linecap:round;stroke-linejoin:round;stroke-miterlimit:4;stroke-dasharray:none;stroke-dashoffset:0;stroke-opacity:1;color-rendering:auto;image-rendering:auto;shape-rendering:auto;text-rendering:auto;enable-background:accumulate;stop-color:#000000"
           d="m 9.8535156,271.9043 -1.2753906,0.75 c -0.1747672,0.10286 -0.2130226,0.24614 -0.2363281,0.39648 -0.023306,0.15034 -0.00707,0.32403 0.085937,0.48828 l 0.023437,0.041 c 0.1859922,0.32854 0.6137111,0.44761 0.9394531,0.25586 l 1.175781,-0.69141 c 0.325754,-0.19175 0.436011,-0.61681 0.25,-0.94531 l -0.02344,-0.041 c -0.186007,-0.32851 -0.613714,-0.44565 -0.9394534,-0.2539 z"
           id="path391" />
        <path
           sodipodi:nodetypes="cccccccccc"
           id="path276"
           d="m 5.5703125,262.58163 c -0.4110032,-0.0838 -0.603841,0.0325 -0.7037307,0.43985 l -0.6757812,2.75 c -0.028948,0.1177 0.025773,0.24002 0.1328125,0.29688 1.5692256,0.83658 2.7765119,0.82961 4.1626474,-0.008 0.099224,-0.0595 0.1050328,-0.1766 0.077856,-0.28907 l -0.6450026,-2.75 c -0.09989,-0.40739 -0.3811571,-0.52367 -0.7921603,-0.43985 l -0.7773437,0.1582 z"
           style="color:#000000;font-style:normal;font-variant:normal;font-weight:normal;font-stretch:normal;font-size:medium;line-height:normal;font-family:sans-serif;font-variant-ligatures:normal;font-variant-position:normal;font-variant-caps:normal;font-variant-numeric:normal;font-variant-alternates:normal;font-variant-east-asian:normal;font-feature-settings:normal;font-variation-settings:normal;text-indent:0;text-align:start;text-decoration:none;text-decoration-line:none;text-decoration-style:solid;text-decoration-color:#000000;letter-spacing:normal;word-spacing:normal;text-transform:none;writing-mode:lr-tb;direction:ltr;text-orientation:mixed;dominant-baseline:auto;baseline-shift:baseline;text-anchor:start;white-space:normal;shape-padding:0;shape-margin:0;inline-size:0;clip-rule:nonzero;display:inline;overflow:visible;visibility:visible;opacity:1;isolation:auto;mix-blend-mode:normal;color-interpolation:sRGB;color-interpolation-filters:linearRGB;solid-color:#000000;solid-opacity:1;vector-effect:none;fill:#7d8e9e;fill-opacity:1;fill-rule:nonzero;stroke:none;stroke-width:0.529167;stroke-linecap:round;stroke-linejoin:round;stroke-miterlimit:4;stroke-dasharray:none;stroke-dashoffset:0;stroke-opacity:1;color-rendering:auto;image-rendering:auto;shape-rendering:auto;text-rendering:auto;enable-background:accumulate;stop-color:#000000;stop-opacity:1" />
        <path
           sodipodi:nodetypes="cccccccccccc"
           id="path277"
           style="color:#000000;font-style:normal;font-variant:normal;font-weight:normal;font-stretch:normal;font-size:medium;line-height:normal;font-family:sans-serif;font-variant-ligatures:normal;font-variant-position:normal;font-variant-caps:normal;font-variant-numeric:normal;font-variant-alternates:normal;font-variant-east-asian:normal;font-feature-settings:normal;font-variation-settings:normal;text-indent:0;text-align:start;text-decoration:none;text-decoration-line:none;text-decoration-style:solid;text-decoration-color:#000000;letter-spacing:normal;word-spacing:normal;text-transform:none;writing-mode:lr-tb;direction:ltr;text-orientation:mixed;dominant-baseline:auto;baseline-shift:baseline;text-anchor:start;white-space:normal;shape-padding:0;shape-margin:0;inline-size:0;clip-rule:nonzero;display:inline;overflow:visible;visibility:visible;opacity:1;isolation:auto;mix-blend-mode:normal;color-interpolation:sRGB;color-interpolation-filters:linearRGB;solid-color:#000000;solid-opacity:1;vector-effect:none;fill:#677582;fill-opacity:1;fill-rule:nonzero;stroke:none;stroke-width:2;stroke-linecap:round;stroke-linejoin:round;stroke-miterlimit:4;stroke-dasharray:none;stroke-dashoffset:0;stroke-opacity:1;color-rendering:auto;image-rendering:auto;shape-rendering:auto;text-rendering:auto;enable-background:accumulate;stop-color:#000000;stop-opacity:1"
           d="m 16.786493,-74.550781 -0.517578,2.105469 c 0.0012,8.52e-4 0.0027,0.0011 0.0039,0.002 2.409303,1.592201 4.804927,2.050137 7.246709,2.111328 2.441783,0.06123 5.042517,-0.463629 8.0846,-2.035157 0.0172,-0.0076 0.03413,-0.01796 0.05078,-0.0293 l 0.06836,-0.04102 -0.498047,-2.03125 -0.566406,0.335938 c -2.862282,1.474507 -5.118923,1.850141 -7.088507,1.800781 -1.977761,-0.04951 -3.958747,-0.306819 -6.190069,-1.78125 z"
           transform="matrix(0.26458333,0,0,0.26458333,0,284.3)" />
        <path
           sodipodi:nodetypes="scsscccss"
           id="path449"
           style="color:#000000;font-style:normal;font-variant:normal;font-weight:normal;font-stretch:normal;font-size:medium;line-height:normal;font-family:sans-serif;font-variant-ligatures:normal;font-variant-position:normal;font-variant-caps:normal;font-variant-numeric:normal;font-variant-alternates:normal;font-variant-east-asian:normal;font-feature-settings:normal;font-variation-settings:normal;text-indent:0;text-align:start;text-decoration:none;text-decoration-line:none;text-decoration-style:solid;text-decoration-color:#000000;letter-spacing:normal;word-spacing:normal;text-transform:none;writing-mode:lr-tb;direction:ltr;text-orientation:mixed;dominant-baseline:auto;baseline-shift:baseline;text-anchor:start;white-space:normal;shape-padding:0;shape-margin:0;inline-size:0;clip-rule:nonzero;display:inline;overflow:visible;visibility:visible;isolation:auto;mix-blend-mode:normal;color-interpolation:sRGB;color-interpolation-filters:linearRGB;solid-color:#000000;solid-opacity:1;vector-effect:none;fill:#dfe0cb;fill-opacity:1;fill-rule:nonzero;stroke:none;stroke-width:0.529167;stroke-linecap:round;stroke-linejoin:round;stroke-miterlimit:4;stroke-dasharray:none;stroke-dashoffset:0;stroke-opacity:1;color-rendering:auto;image-rendering:auto;shape-rendering:auto;text-rendering:auto;enable-background:accumulate;stop-color:#000000"
           d="m 7.4083332,267.18735 c -0.6399993,0 -1.205271,0.33325 -1.5384074,0.83612 0.2905821,-0.19318 0.6370775,-0.30695 1.0092407,-0.30695 1.0225479,0 1.8515666,0.85096 1.8515666,1.88515 0,0.2879 -0.065409,0.56121 -0.1798341,0.80615 -0.039599,0.0848 -0.085866,0.16566 -0.1369425,0.24288 0.2867242,-0.18949 0.5185539,-0.45621 0.6661091,-0.77204 0.1144252,-0.24494 -0.05077,-0.51825 -0.05077,-0.80615 0,-1.03419 -0.5984147,-1.88516 -1.6209624,-1.88516 z" />
        <path
           sodipodi:nodetypes="ccccccccccc"
           id="path1283"
           style="color:#000000;font-style:normal;font-variant:normal;font-weight:normal;font-stretch:normal;font-size:medium;line-height:normal;font-family:sans-serif;font-variant-ligatures:normal;font-variant-position:normal;font-variant-caps:normal;font-variant-numeric:normal;font-variant-alternates:normal;font-variant-east-asian:normal;font-feature-settings:normal;font-variation-settings:normal;text-indent:0;text-align:start;text-decoration:none;text-decoration-line:none;text-decoration-style:solid;text-decoration-color:#000000;letter-spacing:normal;word-spacing:normal;text-transform:none;writing-mode:lr-tb;direction:ltr;text-orientation:mixed;dominant-baseline:auto;baseline-shift:baseline;text-anchor:start;white-space:normal;shape-padding:0;shape-margin:0;inline-size:0;clip-rule:nonzero;display:inline;overflow:visible;visibility:visible;isolation:auto;mix-blend-mode:normal;color-interpolation:sRGB;color-interpolation-filters:linearRGB;solid-color:#000000;solid-opacity:1;vector-effect:none;fill:#6a7986;fill-opacity:1;fill-rule:nonzero;stroke:none;stroke-width:2;stroke-linecap:round;stroke-linejoin:round;stroke-miterlimit:4;stroke-dasharray:none;stroke-dashoffset:0;stroke-opacity:1;color-rendering:auto;image-rendering:auto;shape-rendering:auto;text-rendering:auto;enable-background:accumulate;stop-color:#000000"
           d="m 16.649775,-72.789062 c -0.102944,0 -0.197125,0.01012 -0.298828,0.01172 l -0.675782,2.748047 c -0.10991,0.445154 0.09697,0.908027 0.501954,1.123047 5.930931,3.161877 10.331081,3.13452 15.570019,-0.03125 0.37446,-0.225044 0.559509,-0.667105 0.457031,-1.091797 l -0.673828,-2.748047 c -0.102307,-0.0016 -0.197227,-0.01172 -0.300781,-0.01172 -0.188068,4.58e-4 -0.372197,0.05394 -0.53125,0.154296 -7.4904,4.773279 -13.509473,0 -13.509473,0 -0.161299,-0.101781 -0.348338,-0.155318 -0.539062,-0.154296 z"
           transform="matrix(0.26458333,0,0,0.26458333,0,284.3)" />
      </g>
      <path
         sodipodi:nodetypes="ccccssccccccscccscccccccccccccccccccscscscccccccccccccscccccccccccccccscscccccsccssccccssscccccccccccccccccccccccccccccccscccscccscscccccccccscccccsccccccccc"
         d="m 5.0353515,262.33194 c -0.1250516,-0.004 -0.2358602,0.08 -0.2656168,0.20154 l -0.747758,3.04529 c -0.4697815,0.0197 -0.8863576,0.0997 -1.2092286,0.22583 -0.1855114,0.0724 -0.3424025,0.15616 -0.4671548,0.26561 -0.1247523,0.10945 -0.2304755,0.25925 -0.2304769,0.44752 1.1e-6,0.14451 0.066779,0.2744 0.1524454,0.37104 0.085666,0.0967 0.1922014,0.17272 0.3162598,0.24029 0.1668214,0.0908 0.3708434,0.16746 0.6040974,0.23565 0.041657,0.67816 0.2858982,1.44565 0.6640423,2.1425 l -1.12913,0.57671 c -0.4411596,0.22491 -0.4769066,0.84916 -0.1095541,1.14102 -0.596053,0.0751 -1.0945565,0.29226 -1.4748454,0.65577 -0.59922397,0.57279 -0.87488199,1.46407 -0.874882,2.58641 5.6674e-4,0.14532 0.11823069,0.26298 0.26354983,0.26355 0.1461257,5.8e-4 0.2650469,-0.11743 0.2656169,-0.26355 0,-1.03584 0.25195827,-1.76463 0.71106767,-2.20349 0.3477749,-0.33243 0.8334928,-0.5225 1.4867308,-0.5395 -0.3401176,0.33087 -0.286476,0.923 0.1343588,1.17047 h 0.00206 c 5.291e-4,3.2e-4 -5.292e-4,0.002 0,0.002 l 3.0008504,1.78128 c 0.1912099,0.10292 0.2745719,0.0852 0.4464844,0 l 1.8655194,-1.11724 0.011369,0.0196 c 0.1859922,0.32854 0.6137357,0.44755 0.9394777,0.2558 l 1.1756393,-0.69144 c 0.293682,-0.17287 0.409847,-0.53501 0.294038,-0.84542 0.633925,0.46984 1.047998,1.22812 1.047998,2.20451 2.91e-4,0.14553 0.11803,0.2635 0.26355,0.26407 0.14552,-5.5e-4 0.263267,-0.11854 0.26355,-0.26407 0,-1.50592 -0.891062,-2.64245 -2.100647,-3.07164 l -0.02222,-0.0393 c -0.03374,-0.0596 -0.07746,-0.10982 -0.125058,-0.15503 0.359778,-0.28725 0.318355,-0.88517 -0.105419,-1.10122 l -0.9193243,-0.46819 c 0.062086,-0.18775 0.097152,-0.38778 0.097152,-0.59583 0,-0.60939 -0.2891697,-1.1537 -0.7348389,-1.49913 0.2473023,-0.0378 0.482069,-0.0803 0.6919476,-0.13023 0.3738409,-0.0889 0.6810449,-0.19498 0.9177736,-0.32814 0.236727,-0.13315 0.446999,-0.31676 0.447001,-0.59738 -1e-6,-0.18803 -0.105505,-0.33762 -0.230477,-0.44752 -0.124971,-0.10989 -0.281033,-0.19496 -0.4666387,-0.26717 -0.322916,-0.12562 -0.7398452,-0.20482 -1.2092282,-0.22427 l -0.745686,-3.04516 c -0.03425,-0.13797 -0.1713873,-0.22422 -0.3105753,-0.19534 L 6.3494819,262.596 5.0782415,262.33814 c -0.014105,-0.003 -0.028449,-0.005 -0.042891,-0.006 z m 0.1870686,0.57464 1.0743531,0.21859 c 0.034784,0.007 0.070636,0.007 0.10542,0 l 1.0722859,-0.21859 0.4408001,1.79524 c -0.6391783,0.29639 -1.178858,0.43952 -1.6691489,0.43098 -0.4888333,-0.009 -0.9487881,-0.16421 -1.4536581,-0.47128 z m -0.5622396,2.29599 c 0.5184127,0.29037 1.0352254,0.44995 1.5781983,0.4594 0.5669958,0.01 1.1559273,-0.14658 1.8055746,-0.43718 l 0.1173054,0.47801 c -1.6036599,0.91305 -3.1469957,0.24932 -3.6230345,-0.002 z m -1.6541625,1.0945 c 0.2853306,-0.11143 0.7160598,-0.19036 1.2050945,-0.19327 0.1785051,0.10807 2.1587862,1.24418 4.2710571,-0.002 v 0 c 0.4914643,0.002 0.9251712,0.082 1.2112957,0.19327 0.145123,0.0565 0.251578,0.12201 0.3085077,0.17208 0.03311,0.0291 0.044,0.0463 0.04806,0.0532 -0.0014,-0.0111 -0.01643,0.0457 -0.1731157,0.13384 -0.164932,0.0928 -0.4390537,0.19196 -0.7834147,0.27388 -0.6887223,0.16386 -1.6650893,0.26924 -2.7440186,0.26924 -1.0466583,0 -1.9986601,-0.098 -2.6835571,-0.25373 -0.3635854,-0.0826 -0.6533369,-0.1834 -0.8299235,-0.27957 -0.2229161,-0.14787 -0.07853,-0.28557 0.1700154,-0.36691 z m 1.3983644,3.11196 C 4.0465956,268.79102 3.801379,268.08272 3.7305217,267.49338 h -2e-7 c 0.6605045,0.13418 1.4832287,0.21574 2.3895182,0.2279 -0.348129,0.34352 -0.56534,0.82331 -0.56534,1.35134 0,0.83299 0.5395495,1.54433 1.2836425,1.79007 -0.1653553,0.0641 -0.3309829,0.10232 -0.488859,0.10232 -0.623279,0 -1.2981575,-0.54504 -1.8066081,-1.32602 z m 3.0039509,-1.69189 c 0.7309559,0 1.3218832,0.60178 1.3218832,1.35548 0,0.20981 -0.04628,0.4055 -0.1286743,0.58187 -0.1306272,0.2796 -0.3529645,0.50571 -0.624768,0.63872 -0.17256,0.0845 -0.3635614,0.13281 -0.5684409,0.13281 -0.7309554,0 -1.3244669,-0.5997 -1.3244669,-1.3534 0,-0.7537 0.5935115,-1.35548 1.3244669,-1.35548 z m -3.2845539,2.24483 c 0.272108,0.41151 0.5931921,0.78522 0.9554972,1.0604 0.043881,0.12898 0.3159093,0.93068 0.5865272,1.78852 0.1391605,0.44112 0.2666564,0.865 0.3519168,1.18752 l -2.6230959,-1.55908 c -6.879e-4,0 -0.00138,0 -0.00206,0 -0.1333103,-0.0777 -0.1434333,-0.2588 -0.019637,-0.35346 l 0.4589645,-0.35264 c 0.197485,-0.1679 0.1599965,-0.36491 -0.00783,-0.46953 l -0.8609324,-0.43719 c -0.1184576,-0.0604 -0.1184571,-0.21142 0,-0.27181 z m 4.805908,0.18086 0.9120889,0.46458 c 0.09686,0.0494 0.102947,0.17045 0.0098,0.2284 l -0.4785235,0.29766 -0.5265827,-0.87901 c 0.028774,-0.0362 0.057087,-0.0733 0.083199,-0.11163 z m -0.4769733,0.48215 0.4656044,0.77928 -0.2366779,0.14004 -0.4661215,-0.77825 c 0.082935,-0.041 0.161889,-0.0885 0.237195,-0.14107 z m -0.7374229,0.33744 0.5100466,0.8506 -0.1255739,0.0739 c -0.1747669,0.10286 -0.2133722,0.24603 -0.236678,0.39636 -0.023305,0.15034 -0.0067,0.32616 0.0863,0.49041 l 0.023254,0.0408 c 0.062963,0.11121 0.1548998,0.19578 0.2599325,0.25476 L 6.68538,273.99633 c 0.085209,-0.32238 0.2108243,-0.7472 0.3498496,-1.18753 0.2682586,-0.84964 0.5366475,-1.63552 0.5849771,-1.77663 0.032243,-0.0228 0.063779,-0.0461 0.095085,-0.0698 z m -0.7751463,0.42995 c -0.116867,0.3516 -0.265256,0.8038 -0.4087607,1.25832 -0.063129,0.19995 -0.1230802,0.39517 -0.1803508,0.58446 -0.056795,-0.18947 -0.1163161,-0.38475 -0.1793171,-0.58446 -0.1432468,-0.45408 -0.2919802,-0.90537 -0.4092774,-1.25677 0.188676,0.0638 0.3842589,0.10025 0.5870443,0.10025 0.2039646,0 0.4014914,-0.038 0.5906617,-0.1018 z m 1.5429984,0.88368 c 0.3881741,-0.2265 0.7737104,-0.4554 1.15968,-0.68214 0.01923,-0.0113 0.03864,-0.0187 0.0584,-0.0217 h -1e-6 c 0.05925,-0.009 0.117587,0.0185 0.152445,0.0801 l 0.02325,0.0413 c 0.04648,0.0821 0.01853,0.18312 -0.05839,0.22841 l -1.1740883,0.69143 c -0.076943,0.0453 -0.1643615,0.0216 -0.2108398,-0.0605 l -0.023254,-0.0413 c -0.025712,-0.0738 -0.040625,-0.16452 0.072804,-0.23563 z m 0.4368249,0.78962 1.2013758,-0.70643 c 0.01923,-0.0113 0.03864,-0.0183 0.05839,-0.0212 h 2e-6 c 0.05925,-0.009 0.117588,0.0206 0.152446,0.0822 l 0.02325,0.0408 c 0.04648,0.0821 0.01853,0.18106 -0.05839,0.22634 l -1.1740892,0.69143 c -0.076943,0.0453 -0.1643616,0.0237 -0.2108399,-0.0584 l -0.023254,-0.0408 c -0.01429,-0.0252 -0.020648,-0.0577 -0.023254,-0.0899 -0.00108,-0.0443 0.01139,-0.0966 0.054359,-0.12401 z"
         style="color:#000000;font-style:normal;font-variant:normal;font-weight:normal;font-stretch:normal;font-size:medium;line-height:normal;font-family:sans-serif;font-variant-ligatures:normal;font-variant-position:normal;font-variant-caps:normal;font-variant-numeric:normal;font-variant-alternates:normal;font-variant-east-asian:normal;font-feature-settings:normal;font-variation-settings:normal;text-indent:0;text-align:start;text-decoration:none;text-decoration-line:none;text-decoration-style:solid;text-decoration-color:#000000;letter-spacing:normal;word-spacing:normal;text-transform:none;writing-mode:lr-tb;direction:ltr;text-orientation:mixed;dominant-baseline:auto;baseline-shift:baseline;text-anchor:start;white-space:normal;shape-padding:0;shape-margin:0;inline-size:0;clip-rule:nonzero;display:inline;overflow:visible;visibility:visible;opacity:1;isolation:auto;mix-blend-mode:normal;color-interpolation:sRGB;color-interpolation-filters:linearRGB;solid-color:#000000;solid-opacity:1;vector-effect:none;fill:#000000;fill-opacity:1;fill-rule:nonzero;stroke:none;stroke-width:0.529167;stroke-linecap:round;stroke-linejoin:round;stroke-miterlimit:4;stroke-dasharray:none;stroke-dashoffset:0;stroke-opacity:1;color-rendering:auto;image-rendering:auto;shape-rendering:auto;text-rendering:auto;enable-background:accumulate;stop-color:#000000;stop-opacity:1"
         id="path738" />
    </g>
  </g>
</svg>
